<svg width="32" height="32" viewBox="0 0 32 32" fill="none" xmlns="http://www.w3.org/2000/svg">
<path d="M21.9998 4C19.6798 4 17.4532 5.08 15.9998 6.78667C14.5465 5.08 12.3198 4 9.99984 4C5.89317 4 2.6665 7.22667 2.6665 11.3333C2.6665 16.3733 7.19984 20.48 14.0665 26.72L15.9998 28.4667L17.9332 26.7067C24.7998 20.48 29.3332 16.3733 29.3332 11.3333C29.3332 7.22667 26.1065 4 21.9998 4ZM16.1332 24.7333L15.9998 24.8667L15.8665 24.7333C9.51984 18.9867 5.33317 15.1867 5.33317 11.3333C5.33317 8.66667 7.33317 6.66667 9.99984 6.66667C12.0532 6.66667 14.0532 7.98667 14.7598 9.81333H17.2532C17.9465 7.98667 19.9465 6.66667 21.9998 6.66667C24.6665 6.66667 26.6665 8.66667 26.6665 11.3333C26.6665 15.1867 22.4798 18.9867 16.1332 24.7333Z" fill="black"/>
<path d="M21.9999 6.66675C19.9466 6.66675 17.9466 7.98675 17.2533 9.81342H14.7599C14.0533 7.98675 12.0533 6.66675 9.99992 6.66675C7.33325 6.66675 5.33325 8.66675 5.33325 11.3334C5.33325 15.1867 9.51992 18.9867 15.8666 24.7334L15.9999 24.8667L16.1333 24.7334C22.4799 18.9867 26.6666 15.1867 26.6666 11.3334C26.6666 8.66675 24.6666 6.66675 21.9999 6.66675Z" fill="white"/>
<path d="M22.0001 4C19.6801 4 17.4534 5.08 16.0001 6.78667C14.5467 5.08 12.3201 4 10.0001 4C5.89341 4 2.66675 7.22667 2.66675 11.3333C2.66675 16.3733 7.20008 20.48 14.0667 26.72L16.0001 28.4667L17.9334 26.7067C24.8001 20.48 29.3334 16.3733 29.3334 11.3333C29.3334 7.22667 26.1067 4 22.0001 4ZM16.1334 24.7333L16.0001 24.8667L15.8667 24.7333C9.52008 18.9867 5.33341 15.1867 5.33341 11.3333C5.33341 8.66667 7.33342 6.66667 10.0001 6.66667C12.0534 6.66667 14.0534 7.98667 14.7601 9.81333H17.2534C17.9467 7.98667 19.9467 6.66667 22.0001 6.66667C24.6667 6.66667 26.6667 8.66667 26.6667 11.3333C26.6667 15.1867 22.4801 18.9867 16.1334 24.7333Z" fill="black"/>
</svg>
