<svg width="32" height="32" viewBox="0 0 32 32" fill="none" xmlns="http://www.w3.org/2000/svg">
<path d="M21.6534 10.3467C20.0934 8.78675 18.0534 8.00008 16.0001 8.00008V16.0001L10.3467 21.6534C13.4667 24.7734 18.5334 24.7734 21.6667 21.6534C24.7867 18.5334 24.7867 13.4667 21.6534 10.3467ZM16.0001 2.66675C8.64008 2.66675 2.66675 8.64008 2.66675 16.0001C2.66675 23.3601 8.64008 29.3334 16.0001 29.3334C23.3601 29.3334 29.3334 23.3601 29.3334 16.0001C29.3334 8.64008 23.3601 2.66675 16.0001 2.66675ZM16.0001 26.6667C10.1067 26.6667 5.33341 21.8934 5.33341 16.0001C5.33341 10.1067 10.1067 5.33341 16.0001 5.33341C21.8934 5.33341 26.6667 10.1067 26.6667 16.0001C26.6667 21.8934 21.8934 26.6667 16.0001 26.6667Z" fill="black"/>
<path d="M15.9999 5.32007C10.1066 5.32007 5.33325 10.0934 5.33325 15.9867C5.33325 21.8801 10.1066 26.6534 15.9999 26.6534C21.8933 26.6534 26.6666 21.8801 26.6666 15.9867C26.6666 10.0934 21.8933 5.32007 15.9999 5.32007ZM21.6666 21.6401C18.5333 24.7601 13.4666 24.7601 10.3466 21.6401L15.9999 15.9867V7.98673C18.0533 7.98673 20.0933 8.7734 21.6532 10.3334C24.7866 13.4534 24.7866 18.5201 21.6666 21.6401Z" fill="white"/>
<path d="M21.6534 10.3333C20.0934 8.77332 18.0534 7.98665 16.0001 7.98665V15.9867L10.3467 21.64C13.4667 24.76 18.5334 24.76 21.6667 21.64C24.7867 18.52 24.7867 13.4533 21.6534 10.3333ZM16.0001 2.65332C8.64008 2.65332 2.66675 8.62665 2.66675 15.9867C2.66675 23.3467 8.64008 29.32 16.0001 29.32C23.3601 29.32 29.3334 23.3467 29.3334 15.9867C29.3334 8.62665 23.3601 2.65332 16.0001 2.65332ZM16.0001 26.6533C10.1067 26.6533 5.33341 21.88 5.33341 15.9867C5.33341 10.0933 10.1067 5.31999 16.0001 5.31999C21.8934 5.31999 26.6667 10.0933 26.6667 15.9867C26.6667 21.88 21.8934 26.6533 16.0001 26.6533Z" fill="black"/>
</svg>
