<svg width="28" height="28" viewBox="0 0 28 28" fill="none" xmlns="http://www.w3.org/2000/svg">
<path d="M8.3999 21.7332C6.93324 21.7332 5.74657 22.9332 5.74657 24.3999C5.74657 25.8666 6.93324 27.0666 8.3999 27.0666C9.86657 27.0666 11.0666 25.8666 11.0666 24.3999C11.0666 22.9332 9.86657 21.7332 8.3999 21.7332ZM0.399902 0.399902V3.06657H3.06657L7.86657 13.1866L6.06657 16.4532C5.85324 16.8266 5.73324 17.2666 5.73324 17.7332C5.73324 19.1999 6.93324 20.3999 8.3999 20.3999H24.3999V17.7332H8.9599C8.77324 17.7332 8.62657 17.5866 8.62657 17.3999L8.66657 17.2399L9.86657 15.0666H19.7999C20.7999 15.0666 21.6799 14.5199 22.1332 13.6932L26.9066 5.0399C27.0132 4.85324 27.0666 4.62657 27.0666 4.3999C27.0666 3.66657 26.4666 3.06657 25.7332 3.06657H6.01324L4.7599 0.399902H0.399902ZM21.7332 21.7332C20.2666 21.7332 19.0799 22.9332 19.0799 24.3999C19.0799 25.8666 20.2666 27.0666 21.7332 27.0666C23.1999 27.0666 24.3999 25.8666 24.3999 24.3999C24.3999 22.9332 23.1999 21.7332 21.7332 21.7332Z" fill="#1B749F"/>
</svg>
