<svg width="840" height="478" viewBox="0 0 840 478" fill="none" xmlns="http://www.w3.org/2000/svg">
<path opacity="0.15" d="M838.418 300.295L838.966 300.24L839.546 300.182L839.548 300.182V301.666V302.923L840 304.865H838.418L838.416 304.865V302.809V300.296L838.418 300.296V300.295ZM838.699 317.485L839.094 319.599L838.755 321.769L839.208 324.282L838.416 326.109L838.414 326.108L836.945 325.766L837.51 322.796L836.72 320.97L837.171 319.028L838.697 317.485L838.697 317.487L838.699 317.485ZM835.478 335.245L835.476 335.247L835.024 333.304L835.589 332.733L836.383 333.876L835.478 335.247L835.478 335.245ZM833.555 348.381L832.199 347.81L831.973 344.383L832.594 342.155L831.859 341.415L832.425 338.445L832.427 338.445L834.348 339.015L834.574 341.644L833.331 342.9L834.01 346.554L833.558 348.381L833.555 348.38L833.555 348.381ZM838.301 358.888L836.834 358.089V357.063L838.303 357.175V358.889L838.301 358.888L836.832 358.089V357.062L838.301 357.175V358.888ZM831.295 355.349L831.298 355.349V357.404L830.62 358.889V360.716L830.617 360.715L829.712 360.374L829.487 358.089L829.034 355.691L831.295 355.348V355.349ZM733.951 383.346H731.733L728.599 385.062L727.815 387.703L725.725 391.135L723.374 394.17L724.42 397.472L721.677 399.715L718.934 401.299L716.583 402.091L715.929 404.467H713.448L710.964 403.016L709.136 402.355V399.318L707.046 397.471L705.348 395.754L702.54 395.029L701.038 396.546L698.034 395.754L695.552 395.095L691.765 395.623H688.238L686.802 397.075L682.884 398.526L678.965 397.734L677.333 394.501L675.439 392.586C675.439 392.586 673.219 391.267 673.219 390.738C673.219 390.208 670.737 388.23 670.737 388.23L667.602 387.702L666.296 384.534L663.291 382.158L661.202 380.047L658.328 379.255L657.284 376.482L654.671 375.294L653.104 373.71L647.88 373.181H645.137L642.003 374.898L638.084 374.238L635.08 375.294H631.815L627.373 378.594L625.284 380.706L621.17 383.148L619.146 385.195L617.709 389.551L616.664 392.19L618.101 394.039L620.125 392.388L621.758 394.039L623.587 395.887L624.631 400.111L623.587 402.355L622.803 408.031V411.595L621.366 415.292L623.325 419.12L624.5 420.308V424.005L621.758 424.797L619.995 428.955L617.448 431.529L613.137 433.113L608.305 432.717L604.779 432.057L602.167 433.641L598.51 435.752L595.767 434.301L593.285 433.376L590.02 434.829L587.278 437.601L585.319 439.581L584.208 443.475L581.922 445.786L578.918 447.898L574.739 449.878L571.539 453.112L569.906 454.761H565.727L561.939 455.949H556.584L552.666 456.478L549.14 455.29L548.094 453.31L546.266 451.462H541.303L536.732 450.801L534.903 449.613L528.895 450.472H525.172L522.103 453.573L518.708 454.365L515.442 455.29L510.74 454.894L507.542 453.508L505.517 451.462L503.623 447.435L501.206 444.994L497.81 443.674H494.545L490.823 444.663L488.276 442.09H483.182L480.178 439.846L478.676 441.363L476.651 443.41L475.019 446.776L473.256 448.558L472.733 451.991L474.366 453.971V456.939L476.651 459.251V462.419L473.583 464.465L470.644 467.436H468.162H464.375L460.848 466.51L457.191 467.171L454.579 466.379L450.791 465.058L448.702 462.946L446.22 460.439L443.216 459.515L439.69 460.966L437.469 458.722L434.661 457.469L432.375 459.778H429.502L428.588 462.55H425.192L420.882 465.322L418.269 467.963H415.657L415.135 470.735L412.066 471.461L409.911 473.639L405.992 473.507L402.727 475.354L401.029 477.072L397.241 476.411L396.066 474.431L394.629 471.79L393.911 469.085L391.887 471.131L388.491 472.451L385.356 471.394L381.83 470.471V467.302L379.087 465.587L378.043 463.211L375.822 461.758L375.3 458.59L373.471 456.874L371.023 455.785L369.422 454.169H366.092L364.459 455.818L361.194 456.347L359.887 455.026L357.014 455.553L355.447 453.969L354.01 452.518V450.538L352.574 448.823L350.483 449.482L349.047 452.518L346.173 453.046L344.475 449.615L343.56 446.578L342.907 443.145L340.687 439.185V436.017L338.597 434.037V429.681L337.03 424.401L334.81 422.156L333.373 420.705L331.871 417.47L330.239 415.82L328.019 414.896V412.52H329.847L331.414 410.409L330.762 408.56H328.411L326.451 410.54L323.709 410.672L321.684 410.738L319.529 412.916L315.872 413.973L312.737 415.688L311.3 413.577L308.557 414.896H306.337L307.121 411.332L310.256 409.88V408.033H307.644L305.293 406.58L303.856 408.033L301.244 407.24L302.093 404.137L300.199 402.224L297.587 403.808L294.713 403.016L293.995 400.706L295.628 399.056V396.548L296.281 394.699L295.236 391.4L293.277 390.475H290.926L289.751 388.098H286.485L283.873 386.514L280.999 386.25L279.432 388.494H276.167L273.293 389.286L270.942 387.967L268.068 388.494H264.542L261.146 386.712H259.775L258.273 388.23L255.661 388.759L253.179 387.438H250.959L247.955 386.514L243.514 386.646L240.249 385.987L237.898 386.646L235.808 384.799L232.804 383.215H230.061L229.147 386.118L230.061 388.098L228.233 389.947L229.669 390.871L231.106 392.323L232.869 394.105L231.237 395.754H229.408L227.188 393.511L223.793 393.643L221.573 394.566L222.487 397.868L221.573 400.244L219.352 400.903L216.74 400.244L215.696 403.016L216.545 404.929L218.373 406.778L219.613 408.031L220.136 410.276L221.964 412.124L220.136 414.632L218.438 416.347H215.564L212.626 416.545L211.123 415.028L210.079 412.882H208.74L207.336 414.302H205.05L202.503 411.728L202.013 410.243L200.087 408.296V404.929L198.454 403.279H195.45L192.968 404.204L192.054 402.224L189.572 400.244L187.352 399.056L184.348 400.508L181.605 400.904L179.385 400.244L177.818 397.207L175.598 395.227L174.031 397.868H172.332V395.756L173.9 394.172L172.855 391.927L171.549 388.494L171.026 384.93L169.067 382.554L165.932 381.366L165.018 379.123L163.32 377.406L160.186 377.935H158.357V375.426L157.443 372.787L154.243 372.191L152.611 373.842L149.607 374.898L146.995 373.446H144.252L142.946 375.426H140.203H137.2L136.545 376.878L134.847 378.594L134.586 381.102L131.386 380.509L129.492 378.594V375.953L130.342 373.379L128.97 371.993H126.749L125.835 374.106L124.137 375.359H121.59L119.566 377.406L117.868 379.121V381.498L115.647 382.423L113.296 382.29L111.598 384.007L109.508 385.458L110.357 388.032L112.251 389.947L111.467 393.378L109.769 395.095L111.467 396.15L113.949 398.526L115.517 400.111L114.864 403.543L115.582 408.031V411.662L114.211 413.048L112.905 411.595L110.946 411.332L111.206 413.708L112.317 416.018L113.949 417.668L112.643 418.988L110.423 419.253H108.595H107.158H105.983C105.983 419.253 104.415 419.451 103.175 419.451C101.934 419.451 102.195 418.461 102.195 418.461L100.236 417.931L99.3223 417.008L96.9714 416.612V418.461L95.1431 419.253L92.923 421.892H90.4412L87.6984 422.684L86.0982 422.255L84.7597 423.609V425.787L86.1311 427.173L86.9147 429.681L86.262 432.188L85.6742 434.499L84.172 436.017V436.94L82.8656 438.128L79.9919 442.881V446.578L80.7756 451.066L80.2529 454.498L80.5139 458.722L77.3792 460.174L75.2892 459.251L72.2855 460.306L69.4118 459.647L69.02 457.137L67.5835 452.781L67.3226 449.613L65.2326 448.162V446.445L64.188 443.673L62.3597 441.297L63.5352 439.317L64.3188 437.074L62.3597 434.96L61.7069 432.584L59.4868 432.321L59.0299 430.935L57.396 429.285L54.5224 428.889L52.6941 427.04L52.1714 422.817L50.3431 421.1L50.8658 418.461L48.6457 416.612L47.4702 413.577L45.5111 412.652L42.6374 410.672L41.7229 407.503L39.7638 404.468L39.111 401.828L37.6746 401.563L36.6299 400.244L35.3236 398.395L33.6254 398.66L32.5808 395.491L32.9726 389.42L32.4499 384.93L31.4053 382.687L30.099 380.707L30.3599 376.747L28.7926 375.294L27.748 373.183L28.5317 370.807L27.8789 368.166L29.3153 366.713L30.8826 366.45L32.9726 369.089L34.9318 369.75L35.8463 367.77L38.0664 366.846L41.0701 366.713H42.6374L44.5966 367.374L44.9884 364.074L43.9438 362.094L44.4665 360.377L46.0338 360.642L47.4702 361.698L49.0376 363.149L50.2131 361.961L52.0413 362.753L55.0451 363.149L57.2652 364.074L57.7879 361.698L56.2206 360.51L54.0004 359.981L52.564 358.53L50.9967 358.001L52.9559 355.889L55.8287 354.57L58.3106 355.625L60.5306 354.701L62.6207 356.946L65.7553 360.377L68.6289 357.473L70.5881 356.285L70.0654 353.38L71.8937 351.533L73.7219 351.798L73.591 349.684L78.4239 349.026L79.3384 346.781L80.383 345.461L78.1629 344.405V341.633L76.0729 339.257L75.2892 336.22L73.3301 335.032L71.2401 332.656L72.0237 329.883L71.2401 325.791L68.759 323.944L65.8854 321.7L64.9709 318.663L63.0117 317.079L62.3589 315.232L64.0571 313.251L65.3634 310.347V307.575L63.927 304.935L62.4906 302.691L63.7969 301.635L64.5806 299.655H66.1479L67.3234 298.599L68.2379 295.035L68.4989 292.923L67.4535 290.283L66.0162 288.83L64.0571 288.567L62.6207 286.983L61.4452 285.266L59.682 286.784L58.3106 285.398L57.1351 283.418L58.3106 281.305L60.7924 278.797L62.4906 276.817L63.1434 274.441L65.1025 274.308L66.5389 275.892L67.3226 277.873L69.9345 278.798L72.4164 278.006L73.0691 275.366L73.8528 272.461L71.8937 270.481L73.2 269.557L73.0691 267.313L73.8528 264.145L75.2892 260.713L76.3338 257.809L78.9457 257.017L79.8603 255.036L82.3421 252.924V248.436L80.122 246.324L77.6402 245.664L78.4239 243.684L79.0766 241.572L77.2484 239.724L76.0729 237.084L76.4647 235.236L78.9465 232.728L80.383 230.088L79.7302 227.712L81.8202 227.184L84.9548 225.203V222.431L86.2612 220.847L89.5259 220.715L90.9623 218.999L91.0932 217.019L93.836 215.963L96.0561 212.927L99.0598 213.059L101.672 211.475L105.198 212.267L105.721 210.287L106.896 209.099L109.116 210.155L110.945 212.135L113.819 213.058L114.864 215.434L115.908 218.074L117.476 216.49L117.215 212.662L114.864 210.55V206.061L116.954 205.534L117.607 204.874L114.733 203.686L113.035 201.706L142.291 201.574L147.777 199.594V196.162L148.691 187.449H152.348L155.483 184.941V181.509L157.834 180.585V176.096L159.924 175.964L164.495 172.268L166.715 173.323L171.548 164.215L171.875 161.773L175.858 157.747H182.519L184.609 154.051V146.922L188.788 144.81L194.274 142.038L198.061 143.49H200.282L202.11 145.337L204.353 143.758L203.808 146.525L206.028 146.262L209.163 146.394V148.506L209.815 150.882L208.379 149.958L206.877 148.44L205.505 149.826L206.158 152.334V154.843L208.378 156.031L210.076 157.747V160.519L211.97 161.443V164.546L214.125 166.724L215.17 170.42V174.248L214.517 177.549L215.301 179.397L215.366 183.423L217.652 185.733L217.521 188.637L216.998 193.39L214.712 197.416L211.251 200.914H207.594L203.545 201.706L200.018 200.386L196.165 198.208L193.752 195.765V192.201L191.27 189.692L190.095 186.92L189.18 184.28L187.483 181.377L186.568 176.492L184.74 175.7L185.328 172.73L186.83 171.212L185.002 169.364L184.153 171.674L182.912 172.928L183.435 175.832L183.5 179.199L182.064 180.65L183.958 182.565L183.435 185.469L181.607 189.562L178.407 190.552L175.86 193.126L174.881 197.812L172.465 200.254L173.248 203.026L174.424 206.458L172.53 209.824L175.208 212.531L178.079 215.434L181.344 213.058L181.997 209.759L180.299 208.042L180.56 205.138V202.894L182.78 200.518H185L185.784 206.458L186.502 210.353L188.788 212.663L190.225 215.699L193.947 216.821L195.058 215.699L194.143 213.455L196.363 211.607L196.494 206.987L200.543 207.647L204.331 206.195L207.465 207.912L210.992 206.789H213.408L214.911 208.306L217.131 211.738L215.303 213.586V216.49L216.935 214.444L219.221 212.134L222.355 211.474L224.967 207.646V204.346L226.012 202.102L229.408 200.386V198.273L232.673 196.293V192.993L232.15 189.825H234.37L235.089 191.474L238.028 194.445L240.248 197.877V202.497L239.464 204.873L238.289 206.061L236.33 204.081L233.587 203.421L229.408 204.873V208.305L230.452 211.473V214.113L233.456 214.905L236.33 216.225L239.595 214.641V212.265L242.991 211.473L246.256 213.057L245.733 210.944L250.827 211.869L253.57 211.34L258.533 212H261.407L262.843 214.64H264.149V212.264L268.329 210.944H270.55L271.465 214.376H268.983L268.199 216.752L266.24 217.411L269.244 220.184H271.334L275.252 218.467L278.974 219.194L283.024 223.286L284.395 221.9H287.138L290.599 220.778L291.971 222.164L291.579 224.011L289.489 225.463V227.707L291.971 229.82L292.167 227.378L293.277 226.255L295.889 226.915V224.803L298.371 224.407L298.893 221.239L298.502 217.411L300.853 216.223L302.877 215.629L305.293 218.07L306.337 217.015L309.015 220.381L312.085 223.483L314.567 225.992L316.199 229.358L319.268 232.46L321.358 235.761L323.579 238.797V241.436L325.406 244.344L328.018 242.76V239.988L331.022 237.216L328.932 236.556L327.495 233.124L328.018 229.427L325.536 227.711L324.165 224.873L325.405 223.619L328.017 222.299V220.187L328.67 217.019L329.845 215.434V213.454L328.147 212.926L329.062 210.286L330.498 208.438L333.11 207.514L335.918 206.128L336.898 205.138L339.118 202.894L340.816 199.066L342.122 195.898L343.559 192.73L346.04 191.41L347.608 193.653H350.742L352.31 195.237H355.052L356.228 199.726L354.922 201.046L354.334 205.864L350.612 209.626L349.567 213.058L351.787 215.038L351.003 219.527L350.351 223.091L347.739 227.051L346.824 232.728L345.388 237.744L344.343 240.252L345.323 243.751L347.609 246.061L347.217 248.173L344.343 250.417L343.82 255.302L340.947 256.094L337.551 259.526L335.592 262.43L333.764 263.486L330.498 262.826L328.539 264.147L326.384 262.76L325.013 261.374L323.053 260.715V263.223L325.013 266.259L326.972 267.183L329.584 269.031L331.804 268.899L333.371 271.143H335.722C335.722 271.143 336.702 269.361 336.179 268.832C335.656 268.304 337.55 267.446 337.55 267.446H339.249L340.032 266.654L343.298 265.73L345.91 264.278V261.506L347.085 260.318L349.109 258.272L350.742 256.622L351.525 253.454L350.872 250.682L350.612 248.173L352.375 246.391L354.138 244.609H356.881L359.885 244.213L360.733 246.787L361.974 248.041L363.541 252.134L361.454 254.244L361.585 257.413V259.393L364.197 262.033L367.201 262.692V260.845L364.262 259.987L363.152 258.864V257.28L362.891 254.904L364.981 254.244L365.764 252.528L364.981 250.02L365.895 247.907L364.589 245.267L362.891 243.683L361.846 242.628L358.646 241.505L356.818 239.657L355.316 241.176L353.357 242.1L352.312 240.648H349.961L349.569 238.14L351.137 236.556L350.745 232.332L352.573 229.427L353.748 225.996L356.36 223.356L355.446 220.451L354.662 217.943L354.989 215.237L353.095 213.323L355.185 211.211L358.45 207.91H361.193L362.76 205.402L363.805 202.63L362.891 200.386L363.805 198.406H365.895L365.242 201.178V205.006L364.72 208.438L362.369 210.814V214.114V216.49L365.111 218.603L366.679 219.923L368.703 218.669L370.727 220.715L372.947 222.827V221.243L372.099 219.197L370.596 217.679L368.245 216.491V215.435L366.286 213.455L365.372 210.55L368.115 208.702L369.422 210.022L371.512 212.135L373.079 210.683L372.556 208.967L372.36 207.448L373.863 205.93L376.474 206.458L378.63 206.128L380.393 207.91L383.788 209.758L382.874 212.398L383.722 213.256L386.008 215.566H389.535L390.058 213.454L388.621 211.473L388.752 209.626L386.27 208.701L384.442 205.665L383.397 204.61L384.18 201.441L385.356 198.802L384.311 197.746L383.658 194.445L386.27 192.069H392.409L395.543 193.257V192.465H400.637L404.033 191.013H406.514L407.82 189.693L406.514 187.713L404.946 187.185L403.64 185.864C403.64 185.864 404.163 185.336 405.142 184.346C406.122 183.356 406.122 185.336 406.122 185.336L407.689 184.94L406.644 183.752L407.363 182.102L406.253 180.98L407.559 179.132L409.387 177.68L407.559 177.548L407.428 175.568L411.085 175.7L412.522 172.664L416.113 171.278L417.485 169.892L422.383 169.166L423.623 167.912L427.15 166.856L427.933 165.932L425.582 165.14L426.889 163.82L430.284 163.028L433.158 162.632L433.811 161.18L436.162 160.784L434.921 163.16V165.074L436.553 163.424L440.603 163.556L440.995 161.443L443.607 160.915L446.219 161.443L445.044 159.859L443.476 158.671L442.693 157.22H445.566L448.57 156.295H449.484L449.224 154.051L448.178 153.259V150.091L448.832 147.979L450.791 143.094L453.142 141.378L455.231 139.134L457.844 140.718L459.803 140.454L460.391 143.161L458.366 145.207L456.668 147.451L460.815 147.682L461.631 146.856H464.178L466.072 148.771L464.374 150.487C464.374 150.487 464.243 152.204 465.027 152.204C465.81 152.204 467.9 153.128 467.9 153.128L468.553 150.884L467.378 149.696L470.251 148.112H472.863L475.541 146.197L477.043 147.716L479.067 146.726L480.57 148.244L481.875 150.884L483.443 152.204L484.357 151.149L485.729 152.535L487.492 154.317L487.231 157.089L484.618 156.561L485.663 157.616L488.275 159.068L489.908 161.906L488.406 163.424V166.063L487.1 167.911L485.859 170.485L484.357 172.004L481.745 175.172V176.492L480.962 180.189L479.002 182.169L478.219 186.261L475.084 187.053L474.105 190.023L471.949 192.202L471.427 195.633L470.774 198.01L473.125 196.954L472.602 194.314L474.953 192.862C474.953 192.862 477.043 192.202 478.219 192.202C479.394 192.202 479.786 189.826 479.786 189.826L482.006 187.978L484.096 187.186L485.337 184.745L484.357 183.754L482.79 183.622L482.921 182.565L482.79 180.452L484.749 180.32H486.316L488.536 180.848L491.149 181.904L491.671 180.32L493.304 178.01L494.676 179.396V182.036L496.243 184.28H498.071L496.243 182.565L497.483 181.311L499.899 178.869L503.165 177.153L508.128 176.229L512.046 175.04L513.026 176.559L512.112 177.483L514.267 179.661H518.315L518.446 178.605L518.838 177.154L520.405 179.662L523.148 178.606L525.891 176.23C525.891 176.23 528.764 175.702 529.417 175.702C530.07 175.702 529.417 173.326 529.417 173.326L529.025 170.686L527.066 167.65L527.589 164.614L527.981 163.03L529.548 164.614L531.18 163.36L532.552 164.746L534.642 166.198L535.164 164.614L536.209 164.348L537.254 165.536L538.298 164.744C538.298 164.744 538.168 162.302 539.148 162.302C540.128 162.302 540.388 161.048 540.388 161.048L543.262 163.292L544.176 162.368L547.31 163.424L546.266 166.657H547.767L549.27 168.176V170.684L551.751 169.1L553.058 170.42V173.325L551.36 173.853L550.315 174.908L552.143 176.756C552.143 176.756 553.58 176.096 553.58 175.436C553.58 174.775 554.755 176.624 554.755 176.624V178.736L557.433 178.67L559.98 181.244L561.939 182.564L564.682 183.092L565.857 181.904L568.861 183.488L569.123 180.981L567.816 176.625L567.033 174.644V172.797L565.335 171.08V168.704L568.6 169.1L570.428 170.948L573.302 170.156H576.567L575.914 166.724L577.743 163.292L581.138 162.5L583.62 162.368L586.493 163.16V161.18L583.424 159.794L584.534 158.671L585.971 157.087L588.452 157.22L590.411 155.239L589.498 154.711L587.539 152.731L585.318 151.543V148.639L584.404 147.847L583.098 151.278L581.53 150.223V147.451L584.404 144.811L584.012 142.963L581.269 141.246L582.967 139.53H585.449L589.106 137.682L590.151 134.646L594.983 132.799L598.771 131.082C598.771 131.082 599.293 131.61 599.293 132.403C599.293 133.195 596.812 134.119 596.812 134.119L595.897 137.683L598.118 136.626L600.077 134.646L602.558 135.438L601.905 140.587L604.125 138.474V135.966L603.342 131.742L603.865 129.894L605.04 126.594L607.783 125.273L611.701 123.557L614.052 125.273C614.052 125.273 612.942 126.792 612.093 127.649C611.244 128.507 613.007 129.102 613.007 129.102H615.88L617.709 126.99C617.709 126.99 619.799 129.234 620.19 129.63C620.582 130.026 619.799 126.594 619.799 126.594L623.325 124.614L625.807 125.934L628.55 125.802L631.031 123.294L633.643 119.994V116.166L636.909 111.281L639.652 108.509L642.133 105.473L646.443 104.813L650.035 104.615L651.798 106.397L655.455 110.094L658.72 108.642L661.071 106.728H663.618L662.378 105.473V103.625L664.859 101.117V96.7607L666.034 94.5169H667.993L669.692 92.8005V90.1607L672.957 87.7845L673.741 84.6164L672.434 83.296L672.957 81.712L671.129 79.0721L672.565 76.4314L673.937 75.0454L676.418 77.5538L674.524 79.4681L676.483 81.4482H679.487L681.577 80.6562L684.451 79.3358L687.063 78.6761L687.716 76.5637L686.932 74.4513L685.495 74.1876L681.055 72.2075L677.79 72.7358L677.006 70.8879H674.393V69.4361L675.047 66.9277L677.398 65.7397L677.659 62.9675L679.749 61.7795H681.577L680.794 59.5356L681.577 57.1595L683.797 53.8583L684.842 50.0303L688.826 46.1359L693.266 41.6474L695.291 39.6016L699.209 37.8852L702.017 36.2354L704.629 33.5955L707.307 30.8891L710.572 29.5688L712.923 26.1369L717.364 24.8165L719.715 22.3081L722.588 20.9878L724.417 19.932L726.507 22.0444L729.51 21.1201L732.188 23.1659L733.951 21.3838L737.086 19.6675V18.0834L733.951 18.7432L730.294 18.4794L727.943 17.8197L728.727 15.4435L731.208 13.7272L729.118 13.1989V12.0108L730.556 12.1439L730.817 9.76777L732.123 7.91995L733.951 6.07211L737.086 4.88406H738L740.351 1.58363C740.351 1.58363 742.571 0.923862 743.355 0.131821C744.139 -0.660219 743.355 2.37566 743.355 2.37566L745.053 3.82747L746.359 5.14781L744.922 8.18369C744.922 8.18369 746.882 8.1837 747.665 7.39166C748.449 6.59962 747.665 8.97574 747.665 8.97574V11.7479L744.661 13.728L747.012 14.124L748.449 12.6722L751.518 13.8603V12.4742L753.934 14.916L755.633 17.5567L757.069 17.1607L758.505 15.3129V17.0292L759.42 19.1416H756.677V20.1974L758.897 20.8571L757.722 24.289L754.718 24.5528L751.975 27.5887L750.539 30.7568L747.796 31.6812L745.837 30.8891H743.355L741.135 34.1895L742.115 36.1696V39.5358L739.96 41.7139L738.261 40.3936L736.563 41.7139H734.082L732.645 40.5259L731.339 39.7338L731.143 40.9876L732.123 41.9777L730.948 42.506L730.164 43.298L732.449 43.694V45.4761L734.212 47.2582L737.086 46.4662H739.045L739.175 48.9746L740.351 47.7865L742.375 49.8331L744.531 52.0112L745.575 55.8392L746.098 58.8751L744.008 62.307H742.049L739.306 63.495L738.392 65.6066L740.612 64.6823H742.049L739.96 67.1915L741.265 68.511L742.963 67.8513V65.3429L744.531 64.1548L747.338 64.0891L748.972 62.4392L749.755 61.1189L751.714 61.2512L753.282 60.9874L756.155 60.8552V62.703H758.505L759.159 61.4492H761.444L762.816 60.0631L764.514 59.7994L765.95 60.9874L768.04 59.4033L769.02 61.7137L770.914 63.6281V66.4002L768.301 67.456L766.604 71.1509H763.861L763.077 72.339L766.146 74.3848L765.167 75.3748L767.387 78.8075L768.301 83.0315V87.7837L769.085 91.4802L770.391 94.6484L771.045 98.8723L772.35 102.965L774.832 105.209V109.037L776.138 114.317L778.359 116.825L779.795 118.277L777.575 120.257L775.224 119.069L771.958 120.125L770.261 124.085L767.518 128.046L768.955 129.498L767.91 133.195V135.175L770.13 138.607V140.719L767.648 139.531L765.82 137.682L764.253 137.815L765.689 141.642V144.151L768.105 145.273L765.689 147.715H764.122V151.147L762.686 152.599L764.645 155.899L766.212 157.483L768.04 159.331L770.522 161.839L771.044 165.536L771.436 168.44L775.028 170.354L777.183 172.532H780.84L779.86 170.288V169.166L781.101 167.912L782.016 165.932L785.411 169.364L786.064 172.4L789.46 174.776L792.823 175.535L794.162 174.182H796.317L798.864 176.756L797.819 179.264L795.207 180.056L795.991 183.225L798.734 187.845L801.15 188.439L803.044 190.353L807.484 189.825L810.097 191.937L811.01 194.313L809.443 195.369L807.223 196.821L805.917 199.725L806.831 205.006L809.443 209.098L811.729 209.956L812.84 211.078L816.627 212.003V213.587L813.753 213.983V216.359L812.709 218.735L814.015 223.487L816.234 224.411L819.631 227.843L822.112 230.219L822.635 234.443L823.941 239.988L824.594 243.552V246.192L823.157 244.212H819.37L816.954 242.958L815.06 241.044H812.448L810.097 238.667L805.525 236.555L801.215 234.707L796.252 232.067L794.815 230.087L792.465 228.503L789.852 227.975L784.236 226.258L780.579 224.278L777.052 221.902L775.354 218.734L771.567 214.906L768.955 212.134L768.954 209.362L767.126 207.514L766.734 204.478L764.514 201.31L762.097 200.782V199.659L763.207 198.537L764.122 196.557L762.881 194.379L764.057 193.191L765.036 192.201L763.73 188.241L763.077 184.017L761.51 179.132L759.028 175.832L757.984 171.475L756.808 167.383L755.502 164.083L753.934 159.198L752.367 157.878L752.236 155.238L753.151 152.07V150.222V147.978L751.583 146.394L749.885 143.094H748.188L746.555 142.499L745.053 140.981L743.224 138.605L740.481 136.889V133.853L742.963 131.477L742.114 130.619L740.09 132.665L737.217 134.249V137.021L736.433 139.133L738 140.585L740.286 142.895L742.441 145.074H745.053L744.792 146.79L743.616 146.658L742.375 148.44L744.008 150.09V154.314L745.314 157.482L745.575 162.498L744.661 165.536L743.616 162.896L741.265 161.708L741.266 165.008L739.307 163.028L738 161.708L736.955 159.464L733.298 156.032L734.343 158.937L733.298 162.105H729.772V164.217L728.596 168.573L727.159 170.29L727.29 176.098L729.641 177.682L729.249 181.378L731.6 185.075V189.035L732.319 194.249L734.474 196.427V198.803L736.302 200.651L738 200.387L739.502 199.001L740.612 197.879H742.571L742.441 200.387L740.351 201.047V204.611L736.433 205.271L737.347 209.891L736.955 211.871L734.474 212.926V215.698L733.559 218.207C733.559 218.207 730.49 218.933 731.078 218.339C731.665 217.745 729.902 217.151 729.902 217.151V215.434L730.425 213.718L732.58 212.992L731.6 212.002L729.249 212.926L726.767 213.322V214.51L723.111 216.227L721.282 218.47L719.193 218.999L717.495 220.715L716.842 222.695L717.494 225.203L718.931 226.655L717.234 228.503L714.491 227.447L715.339 230.285L713.315 232.331L711.486 234.047H709.919L708.352 235.499L709.397 237.216L710.181 238.008L707.96 239.459H704.956L702.017 242.43L700.123 244.344L698.033 247.908L695.813 250.152L693.593 254.64L693.201 258.997L695.291 263.221L693.332 265.201L692.679 269.425L693.854 272.461L695.683 274.308L694.116 276.948V280.512V285.265L693.332 288.565V293.054L694.638 294.505V297.674V301.238L693.463 305.726V309.423L691.504 312.723V316.023L690.458 318.927L691.634 321.6H693.626L695.16 320.05H697.315L699.014 318.332L700.907 316.419L702.213 317.739L703.781 318.531V320.248L705.022 322.557L706.589 324.141L707.961 322.755V320.644L706.131 319.852V317.871L707.569 316.287V317.607L709.136 318.795L709.92 318.531L710.703 319.323V321.699V323.416L713.315 322.36V321.04L714.752 319.06L715.666 318.268L717.103 319.324L717.429 317.146L716.189 315.892L715.013 313.647L713.576 311.008L715.927 309.688L717.364 308.235L720.237 307.576H723.634L726.441 307.906L727.682 309.16C727.682 309.16 730.687 308.632 731.339 308.632C731.992 308.632 733.82 307.839 733.82 307.839L735.453 309.489L734.212 310.744L733.298 311.667L732.515 313.12H734.735H737.086L737.609 314.836L739.568 316.816L741.984 316.486L743.225 317.74L744.531 320.248L744.922 325.264L746.621 330.545L749.298 334.439L752.628 337.805L753.934 339.126L754.587 341.369L757.2 344.01L759.028 347.178L759.682 349.026L762.098 352.789L764.122 354.834V360.378L763.338 365.13L764.776 369.882L764.645 374.766L766.081 378.595L767.126 382.82L767.909 386.647L768.693 391.795V396.812L767.909 399.452V404.601V410.937L767.126 415.689L767.909 420.573L767.648 426.909V429.946L765.036 434.302L763.338 437.998L761.379 441.695H759.681L756.416 443.014L753.673 444.598L751.779 443.806V442.024L750.8 441.034L749.819 443.278V445.719L748.71 444.598L747.012 442.882V444.202L746.49 447.502L747.012 449.746L746.294 452.32L745.183 453.442V454.763V456.874L742.702 456.743L741.657 455.686L742.571 452.65L744.139 449.482V446.843L742.767 443.739L739.96 440.902L738.522 439.45L737.347 436.413L734.866 433.905L732.515 433.113L732.449 430.539L734.082 428.889L735.519 427.438V424.797L737.347 422.948L739.437 421.893L741.593 422.619L743.486 420.705L744.661 418.329L742.571 415.028L743.616 412.256L742.31 409.352L742.049 406.315L740.22 403.808L740.743 401.696L739.306 399.187L738.653 396.283L736.041 393.511L738 391.531V388.626L736.368 386.977L734.474 385.062L733.951 383.346ZM576.457 102.345L578.295 100.489L579.421 101.866H580.013L581.494 100.369L582.858 98.7519L585.465 97.5543L587.362 98.9919L586.295 101.987V103.663L585.051 104.921L583.094 105.82L580.961 106.659H578.828L577.228 108.276L574.68 107.377L573.376 105.46L572.783 104.622L572.546 103.663L574.324 104.502L575.213 103.603L576.457 102.345ZM568.16 114.685L565.849 114.266L564.486 112.887L563.597 109.833L562.471 110.972L561.76 112.529L563.893 114.086L566.027 115.404L567.805 116.722L569.227 115.284L571.36 116.003L570.768 117.8L568.872 119.716L567.982 118.818L565.908 120.915L563.716 124.927L562.471 123.669L561.641 124.508L563.182 125.946V127.863L560.693 128.581H558.56L557.374 127.383L554.529 127.264L552.396 126.186L552.87 124.269L551.211 122.592H549.907L550.263 120.914L548.84 119.476V117.201L550.618 116.242L549.67 115.284L550.263 113.727L551.567 114.445L554.529 113.846L555.833 115.164L556.782 114.206L558.56 115.763L559.864 114.685L558.974 113.786L557.671 112.469L556.782 111.57L556.544 109.414L559.981 108.336L561.404 109.773L563.36 108.396L564.604 107.138H568.397L569.938 106.659V108.216L569.464 110.372H571.36L571.953 112.888L570.768 114.086H569.583L568.16 114.685ZM570.413 128.222L571.835 128.103L572.665 128.941V130.738L571.539 132.955L570.175 131.576L569.345 129.181L570.413 128.222ZM575.984 134.931L574.68 133.613L573.909 131.756L575.272 130.378L576.635 129.001L578.117 127.623L581.317 128.701H583.569L585.228 131.816L582.029 133.732L579.657 134.691L576.932 135.29L575.865 137.567L575.153 136.847L575.984 134.931ZM548.603 125.227L549.195 126.545V128.102H547.654L546.885 125.287L545.64 124.029L547.536 124.149L548.603 125.227ZM490.642 171.588H492.894V174.463L491.115 176.26L489.575 176.979L488.981 175.541H487.145V174.044L489.337 171.828L490.642 171.588ZM567.562 88.8086L566.673 89.5872L565.903 88.8086L566.613 87.4907L567.562 88.8086ZM559.976 139.842L560.687 140.92L559.976 141.879L558.317 140.561L557.013 139.962L557.724 139.363L559.976 139.842ZM465.507 142.478L465.034 143.317L463.966 142.598L464.441 141.879L465.507 142.478ZM459.344 131.218L460.648 132.056L461.952 131.697L462.307 133.254L461.003 133.613L459.819 132.775L458.159 131.936L459.344 131.218ZM453.773 124.508L454.84 126.305L455.788 128.701L454.367 131.457L451.403 133.733L449.032 133.973L446.069 135.53L444.765 136.368L442.513 138.165L441.446 137.567L442.039 134.811L442.75 132.056L442.631 128.822L444.054 127.384L443.58 124.149L444.291 122.951L444.173 121.154L445.832 119.118L447.018 118.998L447.847 120.675L447.728 123.67V125.347L448.557 123.071L449.861 121.514L450.929 122.592L452.351 125.108L453.773 124.508ZM437.06 112.529L439.905 114.084L439.668 116.361L440.261 118.637L439.787 120.673L438.601 121.512L440.143 123.669L441.091 125.585L439.905 127.263L437.415 128.461L434.808 127.503L433.86 125.946L431.964 127.143L431.608 125.586L428.881 125.347L427.815 124.029L427.697 122.472L426.511 120.795L425.089 121.274L424.141 120.436L426.156 118.878L425.8 117.321L426.867 116.003L427.341 114.446L428.171 112.649C428.171 112.649 429.949 112.049 430.305 111.93C430.66 111.81 432.201 111.451 432.201 111.451L434.808 110.612V113.008L434.216 115.284L435.046 115.644L435.994 113.847L437.06 112.529ZM434.927 149.187L435.046 150.624L433.623 152.062L432.201 150.984L433.742 150.624L434.927 149.187ZM416.437 148.827L415.37 150.385L414.54 149.666L415.133 148.708L416.437 148.827ZM402.924 181.532L403.161 183.329C403.161 183.329 402.095 183.568 402.095 183.808C402.095 184.048 401.502 182.251 401.502 182.251L402.924 181.532ZM393.323 173.026L392.138 173.266L391.427 171.828L392.731 170.751L393.323 173.026ZM392.257 186.444L394.035 186.803L395.22 187.042L395.102 188.839L394.035 187.761H392.02L392.257 186.444ZM385.382 115.404L387.16 116.362L386.805 117.56L385.501 116.602L384.671 116.123L385.382 115.404ZM378.152 198.902L379.219 198.543L380.285 199.621L379.811 201.179L378.626 202.497L377.796 201.418L377.322 199.98L378.152 198.902ZM370.685 206.45L369.381 205.491L370.803 204.294L372.107 202.976L373.529 202.616L374.952 204.054L373.411 205.491H371.751L370.685 206.45ZM367.84 189.678L370.211 190.157L370.685 191.235L368.907 190.756L367.484 191.714L366.774 190.636L367.84 189.678ZM363.81 195.548L362.743 196.866L361.795 196.027L362.388 194.47L363.81 195.548ZM352.314 190.517L350.299 191.475L348.165 190.876L347.928 190.038L348.876 188.721L348.402 187.642L349.706 186.683L350.18 186.804L351.484 186.325L352.551 187.882L351.603 188.96L353.499 189.439V190.637L352.314 190.517ZM298.264 205.611L299.568 208.606L299.449 210.883L300.635 212.919L299.806 214.955L297.316 214.715L296.842 212.2L295.538 211.841L295.301 210.163L294.945 207.048L296.368 206.569L298.264 205.611ZM260.216 199.861L259.15 202.377L257.135 202.017L255.475 203.215L253.698 202.497L251.8 201.777L250.971 199.502L252.156 197.945L253.698 195.908L256.305 195.189L258.438 195.908L258.557 197.705L260.216 199.861ZM313.909 149.187L315.331 150.624H317.109V148.827L319.717 149.785L321.021 148.348L322.325 146.791H323.984L326.828 145.474L328.844 146.192H331.807L333.763 144.215L336.074 144.395L337.14 145.953H339.629L340.815 147.15L342.949 146.551H345.912L347.868 144.575L350.179 143.317L353.26 142.118H356.105L357.765 144.754V147.63L355.276 149.906L353.024 152.062L350.061 152.302L346.504 153.978L343.304 152.781L341.763 154.338L338.089 154.218H333.348L331.569 156.135H327.896L325.169 157.692L325.999 159.609L324.102 160.327L321.851 160.088H319.836L319.598 161.406L317.465 160.807V162.963L315.331 164.521L313.553 165.839V163.802L312.131 165.12L312.487 167.516H311.064L310.057 166.497V167.636V169.433L309.02 168.384L307.687 169.731L306.56 170.87H305.018L303.834 172.427L302.293 175.063H299.804L297.788 176.74V179.016L295.774 179.855L295.062 182.251L293.403 183.928V186.923L292.573 189.079L293.64 192.194L292.692 195.309L293.996 197.345L294.588 199.502L293.877 200.221L291.862 201.179V199.621L289.966 198.543H288.662L287.24 196.387L286.411 196.866L283.922 194.47L282.024 192.434L282.736 190.277L284.632 189.678L285.343 188.481L284.039 187.403L284.158 184.527L283.328 184.288L282.499 182.131L280.721 182.011L279.299 179.975L279.773 177.339L281.669 174.704L283.922 174.943L284.632 175.782L285.462 176.141L285.817 174.583L288.544 173.745L290.678 171.469L289.255 169.912L291.152 168.714L293.285 169.552L293.878 167.755V165.958H296.604L297.908 167.276L299.27 165.899L299.567 164.641L302.53 164.041L301.523 163.024L298.974 162.125V161.167L301.938 160.327L305.019 159.49L306.56 157.932H308.575V156.495L311.42 156.374L309.879 154.817L312.368 154.698L313.317 155.656L313.197 153.26L314.383 152.062L313.079 150.505L313.909 149.187ZM395.347 99.8956L396.817 100.49L396.033 101.282L394.711 101.727L393.731 100.737L394.368 100.094L395.347 99.8956ZM417.779 97.9155L419.836 97.8165V98.8066L418.318 100.242L417.583 99.4996L416.898 98.8066L417.779 97.9155ZM422.481 103.658V101.183L425.126 99.4006L426.889 98.6086L427.183 96.6284L429.338 97.2225L430.22 99.2026L432.718 101.727L433.942 102.965L432.473 104.252V107.222L433.159 109.598L430.71 110.39L428.653 111.578H427.281L425.224 113.558L422.971 111.578L422.481 109.796L421.208 108.014L422.139 106.182L423.559 104.747L422.481 103.658ZM423.853 113.657L425.126 114.647L424.392 116.578L423.069 117.915L422.187 117.023L420.032 116.429V115.043L419.738 112.865L421.404 113.063L423.853 113.657ZM396.817 164.744L395.445 165.14L394.613 164.397L395.249 163.754L396.817 164.744ZM365.47 80.7876L366.646 81.2827V83.1638H365.274V82.1737L364.491 81.0847L365.47 80.7876ZM365.177 89.2031L366.744 89.0051L367.185 90.9353L365.912 92.2223L364.197 93.9553H362.042L360.964 93.6583L361.552 92.2722L360.279 91.6782L361.944 90.7872L364.491 90.2921L365.177 89.2031ZM357.046 87.421L358.32 86.728H359.397V88.312L357.536 89.0051L356.508 87.9651L357.046 87.421ZM358.761 92.2223L357.781 93.2124L356.458 94.5494L354.401 95.0444L354.009 93.8563L352.344 93.5593V91.5792L353.128 89.9951L354.205 88.9061L355.626 90.5392L357.83 90.5891H359.299L358.761 92.2223ZM349.797 97.4205L350.973 97.7175L350.483 99.3016H349.161V98.0636L349.797 97.4205ZM346.075 94.5494L343.724 95.0444L343.038 94.3513L344.214 93.1633V91.6782H346.369L347.054 92.3712L348.965 90.9353L350.287 92.2722L351.071 94.0543L349.601 93.5593L349.014 94.9454L346.957 95.4404L346.075 94.5494ZM359.348 77.0746L358.369 78.0646L357.34 77.0255L357.928 75.8374L359.348 77.0746ZM355.773 78.6095L356.458 80.8867L357.34 82.7678L355.871 83.4608V82.0747L354.205 80.3916V78.6095H355.773ZM345.439 85.193L344.312 84.0548L344.606 83.7578H345.977L345.439 85.193ZM348.23 87.916L347.152 88.015L346.222 86.9751L347.152 86.0349L348.23 87.916ZM349.112 81.4807L349.405 82.9658H348.034V81.6787L349.112 81.4807ZM350.189 85.1439L351.071 86.0349H349.945V84.896L350.189 85.1439ZM351.071 87.52L352.442 87.124L351.56 88.015L351.071 87.52ZM353.618 82.2727V83.7578L352.442 83.6588V82.2727H353.618ZM351.365 79.5006L352.002 80.1437L351.365 80.7876L350.679 79.5006H351.365ZM338.042 87.817L339.022 86.2329L340.002 87.52V89.8961L338.582 89.8462L337.308 88.5591L338.042 87.817ZM342.744 86.4309V87.619H341.765L341.275 86.2329L342.744 86.4309ZM331.675 80.0946L333.684 81.5298L334.81 80.3916V79.3026L335.789 78.3125L336.769 77.6195L338.68 78.7576L337.553 79.8966L339.218 81.5797L337.455 83.3618H335.006L333.341 82.8668L331.333 83.7079L329.912 85.1439L328.345 84.7479V83.1638L326.875 83.6588L326.386 81.2827L327.953 80.6886L330.01 82.1737V80.9857L331.675 80.0946ZM330.01 77.9165L327.463 78.8075L327.023 77.4706L325.896 76.3324L326.777 74.5503L328.051 75.8374H330.206L331.088 76.1835H332.116L333.243 77.3225V78.8075L332.557 78.1145L330.892 78.8075L330.01 77.9165ZM333.341 87.619L331.577 87.52L331.283 86.282H332.116L333.341 87.619ZM332.459 88.9061L332.851 89.7971L333.928 90.8862L332.263 90.4901L331.577 89.7971L332.459 88.9061ZM341.569 76.4314L340.589 77.4215H339.61V76.1344L341.569 76.4314ZM704.277 307.38L705.52 309.206L705.069 311.492L703.939 312.634L702.921 311.606L701 312.405V310.692V309.093L702.13 307.837L704.277 307.38ZM733.545 296.073L732.641 296.302L731.964 294.36V292.647L734.902 293.446L736.37 294.131L737.162 295.959L738.744 297.558L741.569 298.129L742.247 299.956L745.411 302.012H747.106L748.461 303.954L749.591 307.038L751.343 308.807L754.677 312.292L756.823 312.863L759.762 314.005L762.587 316.518L766.429 318.687L768.915 320.857L772.193 322.571L775.017 324.284L776.826 325.768L779.989 327.025L779.538 328.51L778.409 329.651L776.261 330.337H774.567L775.019 332.735L774.567 334.448V335.818L776.487 338.788C776.487 338.788 778.297 340.843 777.957 341.186C777.617 341.529 778.07 344.727 778.07 344.727L779.54 346.212L781.8 348.497L783.72 349.753H786.658L788.353 351.466H790.274L791.291 353.636L793.778 353.751L795.303 352.209L797.959 353.751L799.542 355.807C799.542 355.807 800.107 357.177 799.542 357.177C798.976 357.177 795.925 355.692 795.925 355.692L794.626 357.005H791.744L790.841 359.347L791.406 361.631L793.214 363.458L794.569 366.428L792.761 367.913L791.292 366.086L789.371 364.143L785.981 360.946V358.776L783.721 356.492L781.575 354.322L780.105 352.381L778.297 348.839L776.037 346.669L773.664 345.299L771.404 344.614L769.481 340.502L765.301 334.678L761.911 331.251L759.086 328.396L756.599 324.97L755.017 322.343L750.723 320.401L747.333 318.917L745.299 318.688L742.586 314.919V313.206L739.648 310.236L738.066 307.267L734.902 306.239L735.693 303.954V302.241L738.292 303.04L738.744 300.756L737.219 299.215V298.358L735.722 296.844L733.545 296.073ZM776.149 156.157L775.357 158.785L776.149 160.384L776.601 162.439L774.792 161.754L774.679 159.699L773.775 158.556L772.419 157.642L772.645 155.358V152.846L774.001 152.046L776.149 152.96V156.157ZM818.526 167.122H815.813L815.022 165.409L816.604 164.838L818.638 165.638L820.786 164.724L822.933 165.409L821.238 167.122H818.526ZM823.894 253.411L822.652 252.154L823.725 251.069L824.403 249.014L825.532 250.156L825.42 252.211L827.002 253.81L827.962 256.152L826.776 257.351V260.092L825.476 260.834L824.289 259.635L824.403 257.009L824.629 254.953L823.894 253.411ZM831.183 268.088L830.392 269.115L829.262 268.544V266.831L831.183 268.088ZM826.212 158.897L827.681 158.554L826.607 159.639L825.534 160.724L824.743 159.925L826.212 158.897ZM678.083 32.6934L677.024 34.6362L675.62 36.0556L673.546 35.6192L672.207 32.4748L670.911 30.5533L670.565 28.2833L671.256 27.5839L671.106 24.7674L672.726 23.1303L674.713 22.0816L675.62 21.1217L676.657 21.5145L678.342 22.8681V26.1432L678.645 28.894L676.917 31.4269L678.083 32.6934ZM28.8247 202.775L30.8576 203.236L32.5996 202.733L33.2634 201.434L34.8393 201.685L36.3126 203.174L36.3745 205.207L37.5774 205.585L37.8266 207.177L39.6933 207.513L40.1078 206.004L39.0922 204.976L39.9628 204.096L40.5232 204.663L42.3068 206.172V208.435L42.0575 210.406L43.0943 212.125L44.1319 212.837L44.5049 215.395L43.5927 217.324L39.2372 219.546L32.6411 211.622L28.8247 202.775ZM13.0907 341.935L14.0394 342.861L15.6788 342.587L16.936 342.704L17.1889 341.668L18.7162 341.924L18.7656 343.999L20.0914 345.339L19.525 347.842L19.6644 348.262L20.408 348.823L20.7367 349.14L21.0453 351.441L20.5036 353.973L19.3449 355.709L21.2037 358.618L23.8146 360.065L26.1891 360.448L26.6006 360.892L26.9901 361.558L27.2297 362.435L29.3589 364.61L27.1259 364.262L26.1809 365.813L23.5142 365.303L20.7743 363.513L20.2316 362.073L19.2789 360.085L16.9461 360.116L14.8773 360.083L12.8726 359.382L12.0007 358.58L11.5312 357.977L11.0249 357.022L9.31652 355.899L7.9856 355.531L6.15804 356.389L4.94629 357.022L2.88036 357.247L0.993236 355.98L0.51649 354.551L0 352.631L0.953492 351.059L2.22484 350.916L3.09888 349.997L4.76752 349.159L5.26415 347.628L5.08535 345.994L5.44293 344.81L5.30387 343.339L4.62846 341.44L3.45645 341.072L2.44336 340.541L2.3043 339.234L3.33725 338.295L4.01266 338.724L5.18467 339.091L6.37656 339.786L7.78694 339.622L10.2104 339.684L10.8214 340.097L11.4821 340.584L12.3793 341.305L13.0907 341.935Z" fill="#FAFAFA"/>
<circle cx="130" cy="254.146" r="1" fill="#1B749F"/>
<circle cx="171" cy="215.146" r="1" fill="#1B749F"/>
<circle cx="112" cy="216.146" r="1" fill="#1B749F"/>
<circle cx="164" cy="248.146" r="1" fill="#1B749F"/>
<circle cx="157" cy="275.146" r="1" fill="#1B749F"/>
<circle cx="117" cy="296.146" r="1" fill="#1B749F"/>
<circle cx="86" cy="307.146" r="1" fill="#1B749F"/>
<circle cx="109" cy="347.146" r="1" fill="#1B749F"/>
<circle cx="76" cy="383.146" r="1" fill="#1B749F"/>
<circle cx="216" cy="246.146" r="1" fill="#1B749F"/>
<circle cx="208" cy="295.146" r="1" fill="#1B749F"/>
<circle cx="516" cy="304.146" r="1" fill="#1B749F"/>
<circle cx="479" cy="341.146" r="1" fill="#1B749F"/>
<circle cx="384" cy="398.146" r="1" fill="#1B749F"/>
<circle cx="471" cy="264.146" r="1" fill="#1B749F"/>
<circle cx="516" cy="200.146" r="1" fill="#1B749F"/>
<circle cx="390" cy="245.146" r="1" fill="#1B749F"/>
<circle cx="245" cy="275.146" r="1" fill="#1B749F"/>
<circle cx="304" cy="293.146" r="1" fill="#1B749F"/>
<circle cx="212" cy="333.146" r="1" fill="#1B749F"/>
<circle cx="643" cy="270" r="1" transform="rotate(-180 643 270)" fill="#1B749F"/>
<circle cx="602" cy="309" r="1" transform="rotate(-180 602 309)" fill="#1B749F"/>
<circle cx="661" cy="308" r="1" transform="rotate(-180 661 308)" fill="#1B749F"/>
<circle cx="609" cy="276" r="1" transform="rotate(-180 609 276)" fill="#1B749F"/>
<circle cx="616" cy="249" r="1" transform="rotate(-180 616 249)" fill="#1B749F"/>
<circle cx="656" cy="228" r="1" transform="rotate(-180 656 228)" fill="#1B749F"/>
<circle cx="687" cy="217" r="1" transform="rotate(-180 687 217)" fill="#1B749F"/>
<circle cx="664" cy="177" r="1" transform="rotate(-180 664 177)" fill="#1B749F"/>
<circle cx="734" cy="204" r="1" transform="rotate(-180 734 204)" fill="#1B749F"/>
<circle cx="697" cy="141" r="1" transform="rotate(-180 697 141)" fill="#1B749F"/>
<circle cx="622" cy="366" r="1" transform="rotate(-180 622 366)" fill="#1B749F"/>
<circle cx="751" cy="438" r="1" transform="rotate(-180 751 438)" fill="#1B749F"/>
<circle cx="563" cy="405" r="1" transform="rotate(-180 563 405)" fill="#1B749F"/>
<circle cx="568" cy="428" r="1" transform="rotate(-180 568 428)" fill="#1B749F"/>
<circle cx="559" cy="356" r="1" transform="rotate(-180 559 356)" fill="#1B749F"/>
<circle cx="557" cy="278" r="1" transform="rotate(-180 557 278)" fill="#1B749F"/>
<circle cx="565" cy="229" r="1" transform="rotate(-180 565 229)" fill="#1B749F"/>
<circle cx="257" cy="220" r="1" transform="rotate(-180 257 220)" fill="#1B749F"/>
<circle cx="302" cy="260" r="1" transform="rotate(-180 302 260)" fill="#1B749F"/>
<circle cx="257" cy="324" r="1" transform="rotate(-180 257 324)" fill="#1B749F"/>
<circle cx="383" cy="279" r="1" transform="rotate(-180 383 279)" fill="#1B749F"/>
<circle cx="528" cy="249" r="1" transform="rotate(-180 528 249)" fill="#1B749F"/>
<circle cx="469" cy="231" r="1" transform="rotate(-180 469 231)" fill="#1B749F"/>
<circle cx="561" cy="191" r="1" transform="rotate(-180 561 191)" fill="#1B749F"/>
<circle cx="133" cy="287.146" r="1" fill="#1B749F"/>
<circle cx="141" cy="288" r="1" fill="#1B749F"/>
<circle cx="140" cy="295" r="1" fill="#1B749F"/>
<circle cx="131" cy="298" r="1" fill="#1B749F"/>
<circle cx="136" cy="293" r="1" fill="#1B749F"/>
<circle cx="142" cy="296" r="1" fill="#1B749F"/>
<circle cx="137" cy="303" r="1" fill="#1B749F"/>
<circle cx="155" cy="302" r="1" fill="#1B749F"/>
<circle cx="155" cy="290" r="1" fill="#1B749F"/>
<circle cx="145" cy="283" r="1" fill="#1B749F"/>
<circle cx="132" cy="273" r="1" fill="#1B749F"/>
<circle cx="130" cy="281" r="1" fill="#1B749F"/>
<circle cx="130" cy="287" r="1" fill="#1B749F"/>
<circle cx="174" cy="248.146" r="1" fill="#1B749F"/>
<circle cx="115" cy="249.146" r="1" fill="#1B749F"/>
<circle cx="167" cy="281.146" r="1" fill="#1B749F"/>
<circle cx="160" cy="308.146" r="1" fill="#1B749F"/>
<circle cx="120" cy="329.146" r="1" fill="#1B749F"/>
<circle cx="89" cy="340.146" r="1" fill="#1B749F"/>
<circle cx="112" cy="380.146" r="1" fill="#1B749F"/>
<circle cx="79" cy="416.146" r="1" fill="#1B749F"/>
<circle cx="15" cy="347" r="1" fill="#1B749F"/>
<circle cx="4" cy="355" r="1" fill="#1B749F"/>
<circle cx="154" cy="191.146" r="1" fill="#1B749F"/>
<circle cx="219" cy="279.146" r="1" fill="#1B749F"/>
<circle cx="211" cy="328.146" r="1" fill="#1B749F"/>
<circle cx="519" cy="337.146" r="1" fill="#1B749F"/>
<circle cx="482" cy="374.146" r="1" fill="#1B749F"/>
<circle cx="387" cy="431.146" r="1" fill="#1B749F"/>
<circle cx="474" cy="297.146" r="1" fill="#1B749F"/>
<circle cx="519" cy="233.146" r="1" fill="#1B749F"/>
<circle cx="393" cy="278.146" r="1" fill="#1B749F"/>
<circle cx="248" cy="308.146" r="1" fill="#1B749F"/>
<circle cx="307" cy="326.146" r="1" fill="#1B749F"/>
<circle cx="215" cy="366.146" r="1" fill="#1B749F"/>
</svg>
