<svg width="24" height="24" viewBox="0 0 24 24" fill="none" xmlns="http://www.w3.org/2000/svg">
<path fill-rule="evenodd" clip-rule="evenodd" d="M16.502 13.9089H15.708L15.432 13.6349C16.407 12.4979 17 11.0239 17 9.4089C17 5.8189 14.09 2.90891 10.5 2.90891C6.91 2.90891 4 5.8189 4 9.4089C4 12.9989 6.91 15.9089 10.5 15.9089C12.115 15.9089 13.588 15.3169 14.725 14.3429L15.001 14.6169V15.4089L19.999 20.3999L21.49 18.9089L16.502 13.9089ZM10.5 13.9089C8.014 13.9089 6 11.8949 6 9.40887C6 6.92387 8.014 4.90887 10.5 4.90887C12.985 4.90887 15 6.92387 15 9.40887C15 11.8949 12.985 13.9089 10.5 13.9089Z" fill="white"/>
</svg>
