<svg width="28" height="28" viewBox="0 0 28 28" fill="none" xmlns="http://www.w3.org/2000/svg">
<path d="M13.7332 0.399902C6.37324 0.399902 0.399902 6.37324 0.399902 13.7332C0.399902 21.0932 6.37324 27.0666 13.7332 27.0666C21.0932 27.0666 27.0666 21.0932 27.0666 13.7332C27.0666 6.37324 21.0932 0.399902 13.7332 0.399902ZM13.7332 4.3999C15.9466 4.3999 17.7332 6.18657 17.7332 8.3999C17.7332 10.6132 15.9466 12.3999 13.7332 12.3999C11.5199 12.3999 9.73324 10.6132 9.73324 8.3999C9.73324 6.18657 11.5199 4.3999 13.7332 4.3999ZM13.7332 23.3332C10.3999 23.3332 7.45324 21.6266 5.73324 19.0399C5.77324 16.3866 11.0666 14.9332 13.7332 14.9332C16.3866 14.9332 21.6932 16.3866 21.7332 19.0399C20.0132 21.6266 17.0666 23.3332 13.7332 23.3332Z" fill="#1B749F"/>
</svg>
